<svg width="120" height="56" viewBox="0 0 120 56" fill="none" xmlns="http://www.w3.org/2000/svg">
<path d="M0 53.9914V2C22.1849 2 32.3529 11.7762 32.3529 27.7735C32.3529 52.6582 9.39776 54.1395 0 53.9914Z" fill="white"/>
<path d="M21.5686 28L0 33.2201V42.8571L21.5686 28Z" fill="#009688"/>
<path d="M51.6221 22H44.1807V4.72656H51.6221C52.6924 4.74219 53.583 4.86719 54.2939 5.10156C55.5049 5.5 56.4854 6.23047 57.2354 7.29297C57.8369 8.15234 58.2471 9.08203 58.4658 10.082C58.6846 11.082 58.7939 12.0352 58.7939 12.9414C58.7939 15.2383 58.333 17.1836 57.4111 18.7773C56.1611 20.9258 54.2314 22 51.6221 22ZM54.3057 9.13281C53.751 8.19531 52.6533 7.72656 51.0127 7.72656H47.6846V19H51.0127C52.7158 19 53.9033 18.1602 54.5752 16.4805C54.9424 15.5586 55.126 14.4609 55.126 13.1875C55.126 11.4297 54.8525 10.0781 54.3057 9.13281ZM64.6885 9.22656V22H61.3018V9.22656H64.6885ZM64.6885 4.62109V7.70312H61.3018V4.62109H64.6885ZM78.5869 10.8438C79.665 12.1953 80.2041 13.793 80.2041 15.6367C80.2041 17.5117 79.665 19.1172 78.5869 20.4531C77.5088 21.7812 75.8721 22.4453 73.6768 22.4453C71.4814 22.4453 69.8447 21.7812 68.7666 20.4531C67.6885 19.1172 67.1494 17.5117 67.1494 15.6367C67.1494 13.793 67.6885 12.1953 68.7666 10.8438C69.8447 9.49219 71.4814 8.81641 73.6768 8.81641C75.8721 8.81641 77.5088 9.49219 78.5869 10.8438ZM73.665 11.6406C72.6885 11.6406 71.9346 11.9883 71.4033 12.6836C70.8799 13.3711 70.6182 14.3555 70.6182 15.6367C70.6182 16.918 70.8799 17.9062 71.4033 18.6016C71.9346 19.2969 72.6885 19.6445 73.665 19.6445C74.6416 19.6445 75.3916 19.2969 75.915 18.6016C76.4385 17.9062 76.7002 16.918 76.7002 15.6367C76.7002 14.3555 76.4385 13.3711 75.915 12.6836C75.3916 11.9883 74.6416 11.6406 73.665 11.6406ZM89.0283 12.3086C87.6846 12.3086 86.7822 12.7461 86.3213 13.6211C86.0635 14.1133 85.9346 14.8711 85.9346 15.8945V22H82.5713V9.22656H85.7588V11.4531C86.2744 10.6016 86.7236 10.0195 87.1064 9.70703C87.7314 9.18359 88.5439 8.92188 89.5439 8.92188C89.6064 8.92188 89.6572 8.92578 89.6963 8.93359C89.7432 8.93359 89.8408 8.9375 89.9893 8.94531V12.3672C89.7783 12.3438 89.5908 12.3281 89.4268 12.3203C89.2627 12.3125 89.1299 12.3086 89.0283 12.3086ZM55.5361 32.75V50H52.29V48.2305C51.8135 48.9883 51.2705 49.5391 50.6611 49.8828C50.0518 50.2266 49.2939 50.3984 48.3877 50.3984C46.8955 50.3984 45.6377 49.7969 44.6143 48.5938C43.5986 47.3828 43.0908 45.832 43.0908 43.9414C43.0908 41.7617 43.5908 40.0469 44.5908 38.7969C45.5986 37.5469 46.9424 36.9219 48.6221 36.9219C49.3955 36.9219 50.083 37.0938 50.6846 37.4375C51.2861 37.7734 51.7744 38.2422 52.1494 38.8438V32.75H55.5361ZM46.5361 43.6953C46.5361 44.875 46.7705 45.8164 47.2393 46.5195C47.7002 47.2305 48.4033 47.5859 49.3486 47.5859C50.2939 47.5859 51.0127 47.2344 51.5049 46.5312C51.9971 45.8281 52.2432 44.918 52.2432 43.8008C52.2432 42.2383 51.8486 41.1211 51.0596 40.4492C50.5752 40.043 50.0127 39.8398 49.3721 39.8398C48.3955 39.8398 47.6768 40.2109 47.2158 40.9531C46.7627 41.6875 46.5361 42.6016 46.5361 43.6953ZM69.5166 46.25C69.4307 47.0078 69.0361 47.7773 68.333 48.5586C67.2393 49.8008 65.708 50.4219 63.7393 50.4219C62.1143 50.4219 60.6807 49.8984 59.4385 48.8516C58.1963 47.8047 57.5752 46.1016 57.5752 43.7422C57.5752 41.5312 58.1338 39.8359 59.251 38.6562C60.376 37.4766 61.833 36.8867 63.6221 36.8867C64.6846 36.8867 65.6416 37.0859 66.4932 37.4844C67.3447 37.8828 68.0479 38.5117 68.6025 39.3711C69.1025 40.1289 69.4268 41.0078 69.5752 42.0078C69.6611 42.5938 69.6963 43.4375 69.6807 44.5391H60.9385C60.9854 45.8203 61.3877 46.7188 62.1455 47.2344C62.6064 47.5547 63.1611 47.7148 63.8096 47.7148C64.4971 47.7148 65.0557 47.5195 65.4854 47.1289C65.7197 46.918 65.9268 46.625 66.1064 46.25H69.5166ZM66.2119 42.3359C66.1572 41.4531 65.8877 40.7852 65.4033 40.332C64.9268 39.8711 64.333 39.6406 63.6221 39.6406C62.8486 39.6406 62.2471 39.8828 61.8174 40.3672C61.3955 40.8516 61.1299 41.5078 61.0205 42.3359H66.2119ZM80.7432 37.8125C81.7432 38.4531 82.3174 39.5547 82.4658 41.1172H79.126C79.0791 40.6875 78.958 40.3477 78.7627 40.0977C78.3955 39.6445 77.7705 39.418 76.8877 39.418C76.1611 39.418 75.6416 39.5312 75.3291 39.7578C75.0244 39.9844 74.8721 40.25 74.8721 40.5547C74.8721 40.9375 75.0361 41.2148 75.3643 41.3867C75.6924 41.5664 76.8525 41.875 78.8447 42.3125C80.1729 42.625 81.1689 43.0977 81.833 43.7305C82.4893 44.3711 82.8174 45.1719 82.8174 46.1328C82.8174 47.3984 82.3447 48.4336 81.3994 49.2383C80.4619 50.0352 79.0088 50.4336 77.04 50.4336C75.0322 50.4336 73.5479 50.0117 72.5869 49.168C71.6338 48.3164 71.1572 47.2344 71.1572 45.9219H74.5439C74.6143 46.5156 74.7666 46.9375 75.001 47.1875C75.415 47.6328 76.1807 47.8555 77.2979 47.8555C77.9541 47.8555 78.4736 47.7578 78.8564 47.5625C79.2471 47.3672 79.4424 47.0742 79.4424 46.6836C79.4424 46.3086 79.2861 46.0234 78.9736 45.8281C78.6611 45.6328 77.501 45.2969 75.4932 44.8203C74.0479 44.4609 73.0283 44.0117 72.4346 43.4727C71.8408 42.9414 71.5439 42.1758 71.5439 41.1758C71.5439 39.9961 72.0049 38.9844 72.9268 38.1406C73.8564 37.2891 75.1611 36.8633 76.8408 36.8633C78.4346 36.8633 79.7354 37.1797 80.7432 37.8125ZM88.7354 37.2266V50H85.3486V37.2266H88.7354ZM88.7354 32.6211V35.7031H85.3486V32.6211H88.7354ZM95.5908 52.2383C95.9502 52.543 96.5557 52.6953 97.4072 52.6953C98.6104 52.6953 99.415 52.293 99.8213 51.4883C100.087 50.9727 100.22 50.1055 100.22 48.8867V48.0664C99.8994 48.6133 99.5557 49.0234 99.1885 49.2969C98.5244 49.8047 97.6611 50.0586 96.5986 50.0586C94.958 50.0586 93.6455 49.4844 92.6611 48.3359C91.6846 47.1797 91.1963 45.6172 91.1963 43.6484C91.1963 41.75 91.6689 40.1562 92.6143 38.8672C93.5596 37.5703 94.8994 36.9219 96.6338 36.9219C97.2744 36.9219 97.833 37.0195 98.3096 37.2148C99.1221 37.5508 99.7783 38.168 100.278 39.0664V37.2266H103.524V49.3438C103.524 50.9922 103.247 52.2344 102.692 53.0703C101.739 54.5078 99.9111 55.2266 97.208 55.2266C95.5752 55.2266 94.2432 54.9062 93.2119 54.2656C92.1807 53.625 91.6104 52.668 91.501 51.3945H95.1338C95.2275 51.7852 95.3799 52.0664 95.5908 52.2383ZM95.0283 45.6406C95.4814 46.7188 96.2939 47.2578 97.4658 47.2578C98.2471 47.2578 98.9072 46.9648 99.4463 46.3789C99.9854 45.7852 100.255 44.8438 100.255 43.5547C100.255 42.3438 99.9971 41.4219 99.4814 40.7891C98.9736 40.1562 98.29 39.8398 97.4307 39.8398C96.2588 39.8398 95.4502 40.3906 95.0049 41.4922C94.7705 42.0781 94.6533 42.8008 94.6533 43.6602C94.6533 44.4023 94.7783 45.0625 95.0283 45.6406ZM112.665 39.6992C111.532 39.6992 110.755 40.1797 110.333 41.1406C110.114 41.6484 110.005 42.2969 110.005 43.0859V50H106.677V37.25H109.899V39.1133C110.329 38.457 110.735 37.9844 111.118 37.6953C111.806 37.1797 112.677 36.9219 113.731 36.9219C115.052 36.9219 116.13 37.2695 116.966 37.9648C117.81 38.6523 118.231 39.7969 118.231 41.3984V50H114.81V42.2305C114.81 41.5586 114.72 41.043 114.54 40.6836C114.212 40.0273 113.587 39.6992 112.665 39.6992Z" fill="white"/>
</svg>
